<?xml version="1.0" encoding="UTF-8" standalone="no"?>
<!-- Created with Inkscape (http://www.inkscape.org/) -->

<svg
   width="210mm"
   height="297mm"
   viewBox="0 0 210 297"
   version="1.1"
   id="svg1"
   inkscape:version="1.4 (86a8ad7, 2024-10-11)"
   sodipodi:docname="zaba.svg"
   xmlns:inkscape="http://www.inkscape.org/namespaces/inkscape"
   xmlns:sodipodi="http://sodipodi.sourceforge.net/DTD/sodipodi-0.dtd"
   xmlns="http://www.w3.org/2000/svg"
   xmlns:svg="http://www.w3.org/2000/svg">
  <sodipodi:namedview
     id="namedview1"
     pagecolor="#ffffff"
     bordercolor="#000000"
     borderopacity="0.25"
     inkscape:showpageshadow="2"
     inkscape:pageopacity="0.0"
     inkscape:pagecheckerboard="0"
     inkscape:deskcolor="#d1d1d1"
     inkscape:document-units="mm"
     inkscape:zoom="0.51981271"
     inkscape:cx="-43.284821"
     inkscape:cy="268.36589"
     inkscape:window-width="2560"
     inkscape:window-height="1369"
     inkscape:window-x="1912"
     inkscape:window-y="-8"
     inkscape:window-maximized="1"
     inkscape:current-layer="layer1" />
  <defs
     id="defs1" />
  <g
     inkscape:label="Warstwa 1"
     inkscape:groupmode="layer"
     id="layer1">
    <g
       id="g11"
       transform="translate(8.6529563,27.994859)">
      <ellipse
         style="fill:#75e127;fill-opacity:1;fill-rule:evenodd;stroke:#000000;stroke-width:0.973667;stroke-dasharray:none;stroke-opacity:1"
         id="path9"
         cx="51.28149"
         cy="173.18637"
         rx="32.703083"
         ry="33.212082" />
      <ellipse
         style="fill:#75e127;fill-opacity:1;fill-rule:evenodd;stroke:#000000;stroke-width:0.973667;stroke-dasharray:none;stroke-opacity:1"
         id="path9-1"
         cx="142.05431"
         cy="171.68562"
         rx="32.703083"
         ry="33.212082" />
      <ellipse
         style="fill:#75e127;fill-opacity:1;fill-rule:evenodd;stroke:#000000;stroke-width:0.973667;stroke-dasharray:none;stroke-opacity:1"
         id="path10"
         cx="35.120819"
         cy="203.85345"
         rx="30.285347"
         ry="11.452442" />
      <ellipse
         style="fill:#75e127;fill-opacity:1;fill-rule:evenodd;stroke:#000000;stroke-width:0.973667;stroke-dasharray:none;stroke-opacity:1"
         id="path10-7"
         cx="156.52408"
         cy="202.26546"
         rx="30.285347"
         ry="11.452442" />
      <g
         id="g8"
         transform="matrix(0.72600093,0,0,0.7377343,27.830108,3.3011066)">
        <ellipse
           style="fill:#8ae32f;fill-opacity:1;fill-rule:evenodd;stroke:#000000;stroke-width:0.867323;stroke-dasharray:none;stroke-opacity:1"
           id="path6"
           cx="96.455017"
           cy="181.83932"
           rx="68.767815"
           ry="99.18042" />
        <ellipse
           style="fill:#ebfdde;fill-opacity:1;fill-rule:evenodd;stroke:#000000;stroke-width:0.973667;stroke-dasharray:none;stroke-opacity:1"
           id="path8"
           cx="96.964005"
           cy="242.79178"
           rx="40.719791"
           ry="36.393318" />
        <ellipse
           style="fill:#8ae32f;fill-opacity:1;fill-rule:evenodd;stroke:#000000;stroke-width:0.973667;stroke-dasharray:none;stroke-opacity:1"
           id="path7"
           cx="49.500004"
           cy="192.78279"
           rx="19.72365"
           ry="96.836754" />
        <ellipse
           style="fill:#8ae32f;fill-opacity:1;fill-rule:evenodd;stroke:#000000;stroke-width:0.973667;stroke-dasharray:none;stroke-opacity:1"
           id="path7-8"
           cx="143.3325"
           cy="192.50006"
           rx="19.72365"
           ry="96.836754" />
        <g
           id="g5">
          <ellipse
             style="fill:#8ae32f;fill-opacity:1;fill-rule:evenodd;stroke:#000000;stroke-width:0.973667;stroke-dasharray:none;stroke-opacity:1"
             id="path2"
             cx="98.236504"
             cy="81.566833"
             rx="69.732643"
             ry="40.847042" />
          <ellipse
             style="fill:#ffffff;fill-opacity:1;fill-rule:evenodd;stroke:#000000;stroke-width:0.973667;stroke-dasharray:none;stroke-opacity:1"
             id="path1"
             cx="66.678665"
             cy="35.502567"
             rx="21.886889"
             ry="25.068125" />
          <ellipse
             style="fill:#ffffff;fill-opacity:1;fill-rule:evenodd;stroke:#000000;stroke-width:0.973667;stroke-dasharray:none;stroke-opacity:1"
             id="path1-8"
             cx="131.87454"
             cy="35.241314"
             rx="21.886889"
             ry="25.068125" />
          <ellipse
             style="fill:#000000;fill-opacity:1;fill-rule:evenodd;stroke:#000000;stroke-width:0.48819;stroke-dasharray:none;stroke-opacity:1"
             id="path1-6"
             cx="67.047432"
             cy="35.231361"
             rx="10.58534"
             ry="13.030402" />
          <ellipse
             style="fill:#000000;fill-opacity:1;fill-rule:evenodd;stroke:#000000;stroke-width:0.48819;stroke-dasharray:none;stroke-opacity:1"
             id="path1-8-1"
             cx="132.1725"
             cy="35.35006"
             rx="10.58534"
             ry="13.030402" />
          <ellipse
             style="fill:#000000;fill-opacity:1;fill-rule:evenodd;stroke:#000000;stroke-width:0.178336;stroke-dasharray:none;stroke-opacity:1"
             id="path1-5"
             cx="95.844467"
             cy="70.168167"
             rx="3.3895922"
             ry="5.4302411"
             transform="matrix(0.99939774,0.03470099,-0.02460531,0.99969724,0,0)" />
          <ellipse
             style="fill:#000000;fill-opacity:1;fill-rule:evenodd;stroke:#000000;stroke-width:0.178336;stroke-dasharray:none;stroke-opacity:1"
             id="path1-8-5"
             cx="105.94128"
             cy="70.111572"
             rx="3.3895922"
             ry="5.4302411"
             transform="matrix(0.99939774,0.03470099,-0.02460531,0.99969724,0,0)" />
          <path
             style="fill:#000000;fill-opacity:1;fill-rule:evenodd;stroke:#000000;stroke-width:0.973667;stroke-dasharray:none;stroke-opacity:1"
             id="path3"
             d="m 56.022497,89.706365 c -0.989679,-0.569878 -1.978562,-1.141147 -2.96904,-1.709637 -0.165309,-0.09488 0.328517,0.193382 0.493517,0.288801 1.294532,0.748623 2.59824,1.48154 3.885075,2.24332 0.925068,0.547622 -1.86301,-1.073266 -2.799686,-1.60079 -0.176842,-0.0996 0.348438,0.208325 0.519941,0.31686 0.161811,0.102407 0.319902,0.210579 0.479854,0.315867 0.756002,0.488456 1.459981,1.048306 2.18363,1.581246 1.345877,0.968174 2.842657,1.664739 4.259781,2.542532 1.01491,0.628652 -2.066388,-1.196298 -3.103989,-1.786747 -0.09125,-0.05193 0.177163,0.112749 0.264547,0.170952 0.09562,0.06369 0.189616,0.129807 0.284424,0.19471 10.169607,5.852257 0.406207,0.255219 0.618236,0.366881 1.256406,0.661678 2.467692,1.405737 3.705611,2.101393 0.298553,0.167775 0.621509,0.288568 0.927452,0.442134 0.627542,0.334005 1.311148,0.520108 1.97702,0.757955 0.739164,0.31034 1.466855,0.648094 2.194152,0.984999 0.826548,0.311504 1.648622,0.62883 2.471203,0.950605 0.892411,0.294368 1.76171,0.658249 2.629683,1.017429 0.146447,0.04996 0.296527,0.09033 0.439341,0.149881 0.289166,0.120576 0.559522,0.282247 0.843261,0.415086 0.504722,0.2363 0.999731,0.432247 1.532602,0.594498 1.058214,0.33952 2.133137,0.63097 3.185504,0.98749 0.735997,0.20825 1.468988,0.36138 2.17995,0.65096 0.664797,0.26477 1.364244,0.42063 2.035712,0.66441 0.90534,0.2098 1.801368,0.45417 2.696731,0.70483 1.066083,0.24609 2.125255,0.51983 3.183834,0.79616 1.129948,0.21389 2.264087,0.40847 3.39801,0.60145 1.231794,0.14521 2.456878,0.33222 3.683238,0.51689 1.307904,0.16575 2.616423,0.32459 3.931449,0.42224 1.33029,0.0903 2.65575,0.23146 3.98789,0.29975 1.27613,0.0594 2.55382,0.0601 3.83101,0.0614 1.23304,-0.0205 2.46934,0.0503 3.70019,-0.035 1.08011,-0.0409 2.13651,-0.20505 3.19589,-0.40503 0.99139,-0.17103 1.97538,-0.38399 2.96162,-0.58321 1.10965,-0.13449 2.17484,-0.453 3.2023,-0.88321 1.006,-0.40981 2.00291,-0.84281 3.01468,-1.23823 0.85783,-0.39557 1.71714,-0.77926 2.52547,-1.27092 0.8536,-0.47215 1.56741,-1.13341 2.3033,-1.763031 0.64067,-0.486376 1.15847,-1.10603 1.7355,-1.659977 0.1545,-0.148323 0.31976,-0.28502 0.47964,-0.427527 0.1585,-0.156427 0.31701,-0.312854 0.47551,-0.469281 0.95434,-0.874403 1.96436,-1.684187 2.95303,-2.518582 1.11064,-0.859105 2.22118,-1.718323 3.36585,-2.532168 0.91949,-0.772142 1.93934,-1.401482 2.93229,-2.070243 0.46411,-0.285144 0.24353,-0.139068 0.66339,-0.435766 0,0 -3.33406,-2.122064 -3.33406,-2.122064 v 0 c -0.40465,0.285795 -0.18963,0.13921 -0.64662,0.437454 -0.98761,0.674137 -1.9825,1.335963 -2.90666,2.097979 -1.15013,0.825603 -2.28293,1.674675 -3.39517,2.550565 -0.99702,0.838657 -2.01172,1.657175 -2.96636,2.5449 -0.88061,0.856638 -1.75863,1.720066 -2.68559,2.526307 -0.72874,0.610095 -1.44622,1.23834 -2.2838,1.699543 -0.79759,0.469771 -1.64136,0.846181 -2.48644,1.221881 -1.00186,0.41125 -1.99829,0.83557 -2.99955,1.24825 -1.02883,0.39287 -2.08555,0.66832 -3.17912,0.81416 -0.98046,0.20433 -1.96139,0.40944 -2.9475,0.58419 -1.04845,0.19212 -2.10232,0.31017 -3.16751,0.36349 -1.22328,0.0514 -2.44847,0.016 -3.67253,0.0263 -1.27467,-0.007 -2.54995,-0.0159 -3.82327,-0.0809 -1.32783,-0.0792 -2.650586,-0.21536 -3.977673,-0.30394 -1.310637,-0.11151 -2.616496,-0.27128 -3.919688,-0.44892 -1.225066,-0.19121 -2.454473,-0.34718 -3.68133,-0.52489 -1.132301,-0.19928 -2.270067,-0.3775 -3.390908,-0.63455 -1.058749,-0.26316 -2.113971,-0.53971 -3.173439,-0.7999 -0.900372,-0.25238 -1.810192,-0.46969 -2.705545,-0.737708 -0.677688,-0.211865 -1.361188,-0.408548 -2.021284,-0.672018 -0.717449,-0.253761 -1.464323,-0.386892 -2.18549,-0.629576 -1.059021,-0.323664 -2.119178,-0.643577 -3.173249,-0.983324 -0.957556,-0.349168 -1.851498,-0.837546 -2.809319,-1.185738 -0.874498,-0.345405 -1.739622,-0.71469 -2.632607,-1.011285 -0.827227,-0.313203 -1.648989,-0.641413 -2.46748,-0.976614 -0.73493,-0.324919 -1.452721,-0.692515 -2.213808,-0.95473 -0.669301,-0.225515 -1.326097,-0.47793 -1.955993,-0.799854 -0.234027,-0.108829 -0.373314,-0.172265 -0.605634,-0.285692 -0.106106,-0.05181 -0.418764,-0.217945 -0.31713,-0.157835 1.019818,0.603152 4.107593,2.363759 3.072403,1.787385 -1.123437,-0.625509 -7.891339,-4.585546 -0.626854,-0.342111 -2.129644,-1.449515 -7.84929,-4.552434 -1.127329,-0.717482 0.205362,0.117161 -0.793533,-0.542419 -0.583432,-0.403362 -0.760508,-0.495141 -1.428383,-1.119881 -2.206768,-1.592736 -0.578668,-0.411446 -0.375285,-0.285618 -1.001321,-0.65282 -5.283287,-3.098919 -4.876813,-2.837254 -1.072362,-0.647245 0.161724,0.09309 -0.321624,-0.189322 -0.482438,-0.283985 -1.262108,-0.730247 -2.524218,-1.460495 -3.786325,-2.190742 z" />
          <ellipse
             style="fill:#ff0707;fill-opacity:1;fill-rule:evenodd;stroke:#000000;stroke-width:0.973667;stroke-dasharray:none;stroke-opacity:1"
             id="path4"
             cx="52.935734"
             cy="86.020561"
             rx="15.524422"
             ry="13.74293" />
          <ellipse
             style="fill:#ff0707;fill-opacity:1;fill-rule:evenodd;stroke:#000000;stroke-width:0.973667;stroke-dasharray:none;stroke-opacity:1"
             id="path4-1"
             cx="144.25937"
             cy="85.39975"
             rx="15.524422"
             ry="13.74293" />
          <path
             id="path5"
             style="fill:#ffffff;fill-rule:evenodd;stroke:#000000;stroke-width:0.973667"
             d="m 74.313624,32.830337 c 0,2.530004 -1.196401,3.817481 -2.672236,3.817481 -1.475836,10e-7 -1.399743,-1.032978 -1.399743,-3.562982 0,-2.530004 -0.07609,-5.598973 1.399743,-5.598972 1.475835,0 2.672236,2.81447 2.672236,5.344473 z"
             sodipodi:nodetypes="sssss" />
          <path
             id="path5-2"
             style="fill:#ffffff;fill-rule:evenodd;stroke:#000000;stroke-width:0.973667"
             d="m 139.62687,31.523762 c 0,2.529999 -1.1964,4.580971 -2.67223,4.580977 -1.47584,3e-6 -0.89075,-1.541973 -0.89075,-4.07198 0,-2.530006 -0.58509,-5.089977 0.89075,-5.089974 1.47583,6e-6 2.67223,2.050978 2.67223,4.580977 z"
             sodipodi:nodetypes="sssss" />
        </g>
      </g>
      <ellipse
         style="fill:#3b7610;fill-opacity:1;fill-rule:evenodd;stroke:#000000;stroke-width:0.973667;stroke-dasharray:none;stroke-opacity:1"
         id="path11"
         cx="55.607971"
         cy="218.8689"
         rx="6.235218"
         ry="5.3444729" />
      <ellipse
         style="fill:#3b7610;fill-opacity:1;fill-rule:evenodd;stroke:#000000;stroke-width:0.973667;stroke-dasharray:none;stroke-opacity:1"
         id="path11-3"
         cx="64.771416"
         cy="221.15172"
         rx="6.235218"
         ry="5.3444729" />
      <ellipse
         style="fill:#3b7610;fill-opacity:1;fill-rule:evenodd;stroke:#000000;stroke-width:0.973667;stroke-dasharray:none;stroke-opacity:1"
         id="path11-34"
         cx="72.716606"
         cy="216.63124"
         rx="6.235218"
         ry="5.3444729" />
      <ellipse
         style="fill:#3b7610;fill-opacity:1;fill-rule:evenodd;stroke:#000000;stroke-width:0.973667;stroke-dasharray:none;stroke-opacity:1"
         id="path11-34-8"
         cx="121.83248"
         cy="215.44182"
         rx="6.235218"
         ry="5.3444729" />
      <ellipse
         style="fill:#3b7610;fill-opacity:1;fill-rule:evenodd;stroke:#000000;stroke-width:0.973667;stroke-dasharray:none;stroke-opacity:1"
         id="path11-34-7"
         cx="130.53934"
         cy="219.48355"
         rx="6.235218"
         ry="5.3444729" />
      <ellipse
         style="fill:#3b7610;fill-opacity:1;fill-rule:evenodd;stroke:#000000;stroke-width:0.973667;stroke-dasharray:none;stroke-opacity:1"
         id="path11-34-1"
         cx="139.54527"
         cy="215.87784"
         rx="6.235218"
         ry="5.3444729" />
    </g>
  </g>
</svg>
