<?xml version="1.0" encoding="UTF-8" standalone="no"?>
<!-- Created with Inkscape (http://www.inkscape.org/) -->

<svg
   width="210mm"
   height="297mm"
   viewBox="0 0 210 297"
   version="1.1"
   id="svg1"
   inkscape:version="1.3 (0e150ed6c4, 2023-07-21)"
   sodipodi:docname="zaba3.svg"
   xmlns:inkscape="http://www.inkscape.org/namespaces/inkscape"
   xmlns:sodipodi="http://sodipodi.sourceforge.net/DTD/sodipodi-0.dtd"
   xmlns="http://www.w3.org/2000/svg"
   xmlns:svg="http://www.w3.org/2000/svg">
  <sodipodi:namedview
     id="namedview1"
     pagecolor="#ffffff"
     bordercolor="#000000"
     borderopacity="0.25"
     inkscape:showpageshadow="2"
     inkscape:pageopacity="0.0"
     inkscape:pagecheckerboard="0"
     inkscape:deskcolor="#d1d1d1"
     inkscape:document-units="mm"
     inkscape:zoom="0.73512618"
     inkscape:cx="214.92909"
     inkscape:cy="512.15697"
     inkscape:window-width="1920"
     inkscape:window-height="1009"
     inkscape:window-x="-8"
     inkscape:window-y="-8"
     inkscape:window-maximized="1"
     inkscape:current-layer="layer1" />
  <defs
     id="defs1" />
  <g
     inkscape:label="Warstwa 1"
     inkscape:groupmode="layer"
     id="layer1">
    <ellipse
       style="fill:#00ffff;fill-opacity:1;fill-rule:evenodd;stroke:#000000;stroke-width:0.973667;stroke-dasharray:none;stroke-opacity:1"
       id="path9"
       cx="59.934448"
       cy="201.18123"
       rx="32.703083"
       ry="33.212082" />
    <ellipse
       style="fill:#00ffff;fill-opacity:1;fill-rule:evenodd;stroke:#000000;stroke-width:0.973667;stroke-dasharray:none;stroke-opacity:1"
       id="path9-1"
       cx="150.70726"
       cy="199.68048"
       rx="32.703083"
       ry="33.212082" />
    <ellipse
       style="fill:#00ffff;fill-opacity:1;fill-rule:evenodd;stroke:#000000;stroke-width:0.973667;stroke-dasharray:none;stroke-opacity:1"
       id="path10"
       cx="43.773777"
       cy="231.84831"
       rx="30.285347"
       ry="11.452442" />
    <ellipse
       style="fill:#00ffff;fill-opacity:1;fill-rule:evenodd;stroke:#000000;stroke-width:0.973667;stroke-dasharray:none;stroke-opacity:1"
       id="path10-7"
       cx="165.17703"
       cy="230.26031"
       rx="30.285347"
       ry="11.452442" />
    <ellipse
       style="fill:#00ffff;fill-opacity:1;fill-rule:evenodd;stroke:#000000;stroke-width:0.634745;stroke-dasharray:none;stroke-opacity:1"
       id="path6"
       cx="106.5095"
       cy="165.44507"
       rx="49.925499"
       ry="73.1688" />
    <ellipse
       style="fill:#ebfdde;fill-opacity:1;fill-rule:evenodd;stroke:#000000;stroke-width:0.712572;stroke-dasharray:none;stroke-opacity:1"
       id="path8"
       cx="106.87902"
       cy="210.41179"
       rx="29.562607"
       ry="26.848598" />
    <ellipse
       style="fill:#00ffff;fill-opacity:1;fill-rule:evenodd;stroke:#000000;stroke-width:0.712572;stroke-dasharray:none;stroke-opacity:1"
       id="path7"
       cx="72.420113"
       cy="173.51845"
       rx="14.319388"
       ry="71.439796" />
    <ellipse
       style="fill:#00ffff;fill-opacity:1;fill-rule:evenodd;stroke:#000000;stroke-width:0.712572;stroke-dasharray:none;stroke-opacity:1"
       id="path7-8"
       cx="140.5426"
       cy="173.30986"
       rx="14.319388"
       ry="71.439796" />
    <ellipse
       style="fill:#00ffff;fill-opacity:1;fill-rule:evenodd;stroke:#000000;stroke-width:0.712572;stroke-dasharray:none;stroke-opacity:1"
       id="path2"
       cx="107.80286"
       cy="91.470619"
       rx="50.625965"
       ry="30.134264" />
    <ellipse
       style="fill:#ffffff;fill-opacity:1;fill-rule:evenodd;stroke:#000000;stroke-width:0.712572;stroke-dasharray:none;stroke-opacity:1"
       id="path1"
       cx="84.891838"
       cy="57.487427"
       rx="15.889901"
       ry="18.493616" />
    <ellipse
       style="fill:#ffffff;fill-opacity:1;fill-rule:evenodd;stroke:#000000;stroke-width:0.712572;stroke-dasharray:none;stroke-opacity:1"
       id="path1-8"
       cx="132.22411"
       cy="57.294693"
       rx="15.889901"
       ry="18.493616" />
    <ellipse
       style="fill:#000000;fill-opacity:1;fill-rule:evenodd;stroke:#000000;stroke-width:0.357279;stroke-dasharray:none;stroke-opacity:1"
       id="path1-6"
       cx="85.159561"
       cy="57.28735"
       rx="7.6849666"
       ry="9.6129742" />
    <ellipse
       style="fill:#000000;fill-opacity:1;fill-rule:evenodd;stroke:#000000;stroke-width:0.357279;stroke-dasharray:none;stroke-opacity:1"
       id="path1-8-1"
       cx="132.44043"
       cy="57.374916"
       rx="7.6849666"
       ry="9.6129742" />
    <ellipse
       style="fill:#000000;fill-opacity:1;fill-rule:evenodd;stroke:#000000;stroke-width:0.130515;stroke-dasharray:none;stroke-opacity:1"
       id="path1-5"
       cx="106.81699"
       cy="81.756874"
       rx="2.4608953"
       ry="4.0060368"
       transform="matrix(0.99937813,0.03526112,-0.02421421,0.99970679,0,0)" />
    <ellipse
       style="fill:#000000;fill-opacity:1;fill-rule:evenodd;stroke:#000000;stroke-width:0.130515;stroke-dasharray:none;stroke-opacity:1"
       id="path1-8-5"
       cx="114.14742"
       cy="81.715118"
       rx="2.4608953"
       ry="4.0060368"
       transform="matrix(0.99937813,0.03526112,-0.02421421,0.99970679,0,0)" />
    <path
       style="fill:#000000;fill-opacity:1;fill-rule:evenodd;stroke:#000000;stroke-width:0.712572;stroke-dasharray:none;stroke-opacity:1"
       id="path3"
       d="m 77.155449,97.475428 c -0.718508,-0.420418 -1.436438,-0.841863 -2.155526,-1.261257 -0.120014,-0.07 0.238504,0.142664 0.358294,0.213058 0.939831,0.552285 1.886325,1.092983 2.820568,1.654974 0.6716,0.404 -1.352547,-0.791785 -2.032575,-1.180958 -0.128387,-0.07348 0.252967,0.153689 0.377478,0.233759 0.117475,0.07555 0.232249,0.155351 0.348374,0.233026 0.548859,0.360351 1.059948,0.773371 1.585318,1.166539 0.977108,0.714255 2.063771,1.228135 3.092605,1.875711 0.736825,0.46378 -1.5002,-0.882548 -2.253499,-1.318142 -0.06625,-0.03831 0.12862,0.08318 0.192061,0.126117 0.06942,0.04699 0.137662,0.09576 0.206492,0.143644 7.383145,4.317411 0.294907,0.188284 0.44884,0.270661 0.912152,0.48814 1.791547,1.03706 2.690277,1.55027 0.21675,0.12377 0.451216,0.21289 0.673331,0.32618 0.455596,0.2464 0.951895,0.3837 1.435319,0.55917 0.536633,0.22894 1.064938,0.47812 1.592956,0.72666 0.600075,0.22981 1.196901,0.46391 1.794096,0.7013 0.647891,0.21716 1.279003,0.48561 1.909152,0.75059 0.106321,0.0369 0.215279,0.0666 0.318962,0.11057 0.209935,0.089 0.406214,0.20823 0.612208,0.30623 0.366429,0.17432 0.725806,0.31888 1.112671,0.43858 0.768264,0.25047 1.548659,0.46549 2.312679,0.7285 0.534334,0.15364 1.066486,0.2666 1.582645,0.48024 0.482644,0.19533 0.990443,0.31031 1.477929,0.49016 0.657278,0.15477 1.307795,0.33505 1.957829,0.51997 0.773977,0.18155 1.542937,0.3835 2.311467,0.58736 0.82034,0.15779 1.64373,0.30134 2.46696,0.44371 0.89428,0.10712 1.78369,0.24509 2.67403,0.38133 0.94954,0.12227 1.89953,0.23946 2.85424,0.3115 0.96579,0.0666 1.92808,0.17075 2.89521,0.22113 0.92647,0.0438 1.85408,0.0443 2.78132,0.0453 0.89518,-0.0151 1.79274,0.0371 2.68634,-0.0258 0.78416,-0.0302 1.55111,-0.15127 2.32022,-0.29881 0.71975,-0.12617 1.43412,-0.28328 2.15014,-0.43025 0.8056,-0.0992 1.57893,-0.33419 2.32487,-0.65157 0.73036,-0.30234 1.45411,-0.62177 2.18866,-0.91349 0.62278,-0.29182 1.24664,-0.57489 1.83349,-0.9376 0.61972,-0.34832 1.13794,-0.83616 1.6722,-1.30065 0.46513,-0.35882 0.84105,-0.81596 1.25998,-1.22462 0.11216,-0.10942 0.23214,-0.21027 0.34821,-0.3154 0.11508,-0.1154 0.23015,-0.23081 0.34523,-0.34621 0.69285,-0.64507 1.42612,-1.24248 2.1439,-1.85804 0.80632,-0.63379 1.61258,-1.267667 2.44361,-1.868068 0.66755,-0.569636 1.40796,-1.033922 2.12884,-1.52729 0.33695,-0.21036 0.17681,-0.102595 0.48163,-0.321479 0,0 -2.42054,-1.56552 -2.42054,-1.56552 v 0 c -0.29377,0.210841 -0.13767,0.1027 -0.46944,0.322725 -0.71701,0.497334 -1.4393,0.985586 -2.11024,1.547751 -0.835,0.609076 -1.65741,1.235466 -2.4649,1.88164 -0.72383,0.618701 -1.46051,1.222551 -2.15358,1.877461 -0.63932,0.63197 -1.27676,1.26895 -1.94974,1.86374 -0.52906,0.45009 -1.04995,0.91357 -1.65804,1.25381 -0.57905,0.34657 -1.19163,0.62426 -1.80516,0.90143 -0.72735,0.30339 -1.45076,0.61643 -2.17767,0.92087 -0.74693,0.28984 -1.51411,0.49305 -2.30805,0.60064 -0.71181,0.15074 -1.42397,0.30206 -2.13988,0.43097 -0.76118,0.14174 -1.52629,0.22883 -2.29962,0.26816 -0.8881,0.0379 -1.77759,0.0118 -2.66626,0.0194 -0.92541,-0.005 -1.85127,-0.0117 -2.7757,-0.0597 -0.964,-0.0584 -1.92433,-0.15888 -2.88779,-0.22422 -0.95153,-0.0823 -1.89958,-0.20014 -2.8457,-0.33119 -0.8894,-0.14106 -1.78195,-0.25612 -2.67265,-0.38723 -0.82205,-0.14701 -1.64807,-0.27849 -2.4618,-0.46813 -0.768653,-0.19414 -1.534745,-0.39816 -2.30392,-0.59011 -0.653671,-0.18619 -1.314201,-0.34651 -1.964228,-0.54423 -0.492002,-0.1563 -0.988224,-0.3014 -1.467454,-0.49577 -0.520869,-0.18721 -1.0631,-0.28543 -1.586668,-0.46446 -0.76885,-0.23878 -1.538525,-0.47479 -2.303781,-0.72543 -0.695187,-0.2576 -1.34419,-0.61789 -2.039569,-0.87476 -0.634886,-0.25482 -1.262967,-0.52726 -1.911275,-0.74606 -0.600567,-0.23106 -1.197167,-0.4732 -1.791393,-0.72049 -0.533559,-0.2397 -1.054676,-0.51089 -1.607226,-0.70433 -0.485913,-0.16637 -0.962748,-0.352588 -1.420053,-0.590082 -0.169904,-0.08029 -0.271026,-0.127086 -0.439691,-0.210765 -0.07703,-0.03822 -0.304023,-0.160786 -0.230236,-0.116441 0.740388,0.444966 2.982116,1.743828 2.230567,1.318618 -0.815616,-0.46146 -5.729119,-3.382917 -0.455097,-0.25239 -1.546123,-1.069356 -5.698591,-3.358486 -0.818442,-0.52931 0.149093,0.08643 -0.576105,-0.400162 -0.423572,-0.297574 -0.552129,-0.365283 -1.037007,-0.826175 -1.602115,-1.175016 -0.420114,-0.303538 -0.272458,-0.210711 -0.72696,-0.481608 -3.835672,-2.286179 -3.540571,-2.09314 -0.778536,-0.477495 0.117412,0.06868 -0.233499,-0.139669 -0.350251,-0.209505 -0.916291,-0.538729 -1.832584,-1.077458 -2.748875,-1.616186 z" />
    <ellipse
       style="fill:#ff0707;fill-opacity:1;fill-rule:evenodd;stroke:#000000;stroke-width:0.712572;stroke-dasharray:none;stroke-opacity:1"
       id="path4"
       cx="74.914459"
       cy="94.756287"
       rx="11.270744"
       ry="10.138631" />
    <ellipse
       style="fill:#ff0707;fill-opacity:1;fill-rule:evenodd;stroke:#000000;stroke-width:0.712572;stroke-dasharray:none;stroke-opacity:1"
       id="path4-1"
       cx="141.2155"
       cy="94.298294"
       rx="11.270744"
       ry="10.138631" />
    <path
       id="path5"
       style="fill:#ffffff;fill-rule:evenodd;stroke:#000000;stroke-width:0.712572"
       d="m 90.434824,55.516032 c 0,1.86647 -0.868588,2.816286 -1.940046,2.816286 -1.071458,10e-7 -1.016214,-0.762063 -1.016214,-2.628534 0,-1.86647 -0.05524,-4.130554 1.016214,-4.130553 1.071458,0 1.940046,2.076331 1.940046,3.942801 z"
       sodipodi:nodetypes="sssss" />
    <path
       id="path5-2"
       style="fill:#ffffff;fill-rule:evenodd;stroke:#000000;stroke-width:0.712572"
       d="m 137.8523,54.552126 c 0,1.866468 -0.86859,3.37954 -1.94004,3.379544 -1.07146,3e-6 -0.64669,-1.137566 -0.64669,-3.004039 0,-1.866472 -0.42477,-3.755051 0.64669,-3.755048 1.07145,4e-6 1.94004,1.513076 1.94004,3.379543 z"
       sodipodi:nodetypes="sssss" />
    <ellipse
       style="fill:#3b7610;fill-opacity:1;fill-rule:evenodd;stroke:#000000;stroke-width:0.973667;stroke-dasharray:none;stroke-opacity:1"
       id="path11"
       cx="64.260925"
       cy="246.86375"
       rx="6.235218"
       ry="5.3444729" />
    <ellipse
       style="fill:#3b7610;fill-opacity:1;fill-rule:evenodd;stroke:#000000;stroke-width:0.973667;stroke-dasharray:none;stroke-opacity:1"
       id="path11-3"
       cx="73.42437"
       cy="249.14658"
       rx="6.235218"
       ry="5.3444729" />
    <ellipse
       style="fill:#3b7610;fill-opacity:1;fill-rule:evenodd;stroke:#000000;stroke-width:0.973667;stroke-dasharray:none;stroke-opacity:1"
       id="path11-34"
       cx="81.36956"
       cy="244.6261"
       rx="6.235218"
       ry="5.3444729" />
    <ellipse
       style="fill:#3b7610;fill-opacity:1;fill-rule:evenodd;stroke:#000000;stroke-width:0.973667;stroke-dasharray:none;stroke-opacity:1"
       id="path11-34-8"
       cx="130.48544"
       cy="243.43668"
       rx="6.235218"
       ry="5.3444729" />
    <ellipse
       style="fill:#3b7610;fill-opacity:1;fill-rule:evenodd;stroke:#000000;stroke-width:0.973667;stroke-dasharray:none;stroke-opacity:1"
       id="path11-34-7"
       cx="139.19229"
       cy="247.47841"
       rx="6.235218"
       ry="5.3444729" />
    <ellipse
       style="fill:#3b7610;fill-opacity:1;fill-rule:evenodd;stroke:#000000;stroke-width:0.973667;stroke-dasharray:none;stroke-opacity:1"
       id="path11-34-1"
       cx="148.19823"
       cy="243.8727"
       rx="6.235218"
       ry="5.3444729" />
  </g>
</svg>
